<?xml version="1.0" encoding="UTF-8"?>
<!DOCTYPE svg PUBLIC "-//W3C//DTD SVG 1.1//EN" "http://www.w3.org/Graphics/SVG/1.1/DTD/svg11.dtd">
<!-- Creator: CorelDRAW X7 -->
<svg xmlns="http://www.w3.org/2000/svg" xml:space="preserve" width="10.8372mm" height="10.8372mm" version="1.1" style="shape-rendering:geometricPrecision; text-rendering:geometricPrecision; image-rendering:optimizeQuality; fill-rule:evenodd; clip-rule:evenodd"
viewBox="0 0 1084 1084"
 xmlns:xlink="http://www.w3.org/1999/xlink">
 <defs>
  <style type="text/css">
   <![CDATA[
    .fil0 {fill:#373435;fill-rule:nonzero}
    .fil1 {fill:#ED3237;fill-rule:nonzero}
   ]]>
  </style>
 </defs>
 <g id="Capa_x0020_1">
  <metadata id="CorelCorpID_0Corel-Layer"/>
  <g id="_2732210571136">
   <path class="fil0" d="M161 1079l277 -970 392 0c198,0 271,87 221,260 -54,189 -222,304 -504,345l4 -105c207,-30 329,-108 366,-235 31,-107 -12,-161 -128,-161l-256 0 -250 867 -122 -1z"/>
   <path class="fil1" d="M1038 2l-34 113 -565 -4 -106 363 527 4c-56,65 -140,93 -214,112l-344 -2 -141 491 -144 0 314 -1077 707 0z"/>
  </g>
 </g>
</svg>
